<mxfile host="65bd71144e">
    <diagram name="Model Comparison - Round 3" id="model-comparison-round3">
        <mxGraphModel dx="1428" dy="711" grid="1" gridSize="10" guides="1" tooltips="1" connect="1" arrows="1" fold="1" page="1" pageScale="1" pageWidth="1400" pageHeight="1000" math="0" shadow="0">
            <root>
                <mxCell id="0"/>
                <mxCell id="1" parent="0"/>
                <object label="🧩 Model Comparison – Round 3" tooltip="Round 3 comparison of 4 different AI coding models tested with Continue extension in VS Code. This round features a more detailed and specific prompt with exact requirements for Lit 3 component structure. The comparison shows continued improvements in tool execution rates (75%) and perfect Lit 3 framework accuracy (100%). The evaluation focuses on tool execution, code quality, modern syntax usage, and overall performance across different model sizes and architectures." id="title">
                    <mxCell style="rounded=1;whiteSpace=wrap;html=1;fontSize=20;fontStyle=1;fillColor=#dae8fc;strokeColor=#6c8ebf;verticalAlign=top;spacingTop=10;spacingBottom=10;" parent="1" vertex="1">
                        <mxGeometry x="40" y="20" width="1320" height="60" as="geometry"/>
                    </mxCell>
                </object>
                <object label="📋 Test Prompt (Enhanced)&lt;br&gt;&lt;br&gt;&amp;gt; Please create a new TypeScript Lit 3 component file using the `create_new_file` tool.&lt;br&gt;&amp;gt; The file should be named `src/components/my-component.ts`.&lt;br&gt;&amp;gt; &lt;br&gt;&amp;gt; The component must:&lt;br&gt;&amp;gt; - Import from `lit` and `lit/decorators.js`.&lt;br&gt;&amp;gt; - Use `@customElement(&#39;my-component&#39;)`.&lt;br&gt;&amp;gt; - Have a class `MyComponent` extending `LitElement`.&lt;br&gt;&amp;gt; - Include a property `name: string` and render `&lt;h1&gt;Hello, ${this.name}&lt;/h1&gt;`.&lt;br&gt;&amp;gt; &lt;br&gt;&amp;gt; Return the correct tool call to create the file." tooltip="Enhanced prompt for Round 3 with specific requirements for Lit 3 component structure. This detailed prompt tests each model&#39;s ability to understand complex requirements, generate specific TypeScript code with exact imports and decorators, and properly use the Lit 3 framework. The prompt includes specific file naming, import requirements, decorator usage, class structure, and rendering logic." id="test-prompt">
                    <mxCell style="rounded=1;whiteSpace=wrap;html=1;fontSize=14;fontStyle=1;fillColor=#e1d5e7;strokeColor=#9673a6;verticalAlign=top;spacingTop=10;spacingBottom=10;" parent="1" vertex="1">
                        <mxGeometry x="40" y="100" width="1320" height="330" as="geometry"/>
                    </mxCell>
                </object>
                <object label="⚙️ Test Environment &amp; Configuration" tooltip="Round 3 test environment with the same enhanced rules and configuration as Round 2. This round maintains the improved tool usage policy and configuration that led to better results in Round 2, testing the models with a more complex and specific prompt to evaluate their ability to handle detailed requirements." id="test-environment-title">
                    <mxCell style="rounded=1;whiteSpace=wrap;html=1;fontSize=14;fontStyle=1;fillColor=#fff2cc;strokeColor=#d6b656;verticalAlign=top;spacingTop=10;spacingBottom=10;" parent="1" vertex="1">
                        <mxGeometry x="40" y="450" width="1320" height="40" as="geometry"/>
                    </mxCell>
                </object>
                <object label="📋 Continue Agent Rules (Same as Round 2)&lt;br&gt;&lt;br&gt;# Tool Usage Policy&lt;br&gt;You are a coding agent in VS Code with Continue tool access.&lt;br&gt;&lt;br&gt;- You must prefer tools over direct code output.&lt;br&gt;- When creating or editing files, use only the official Continue JSON schema:&lt;br&gt;  {&quot;tool&quot;:&quot;&lt;tool_name&gt;&quot;,&quot;args&quot;:{...}}&lt;br&gt;- Do not use &quot;name&quot;, &quot;arguments&quot;, or &quot;filepath&quot;.&lt;br&gt;- Always specify absolute or project-relative paths (e.g., src/components/...).&lt;br&gt;- When the task involves file creation or modification, always:&lt;br&gt;    1. call the tool&lt;br&gt;    2. wait for confirmation&lt;br&gt;    3. summarize the change (optional)" tooltip="Same Continue Agent rules as Round 2 with explicit tool usage policy and strict JSON schema requirements. These rules provide clear guidance on tool calling format, path specifications, and workflow. The rules explicitly prohibit the incorrect schema format and provide a clear 3-step process for file operations." id="continue-rules">
                    <mxCell style="rounded=1;whiteSpace=wrap;html=1;fontSize=11;fillColor=#fff2cc;strokeColor=#d6b656;verticalAlign=top;spacingTop=5;" parent="1" vertex="1">
                        <mxGeometry x="40" y="510" width="640" height="670" as="geometry"/>
                    </mxCell>
                </object>
                <object label="⚙️ Configuration (config.yaml)&lt;br&gt;&lt;br&gt;```yaml&lt;br&gt;name: Local Agent&lt;br&gt;version: 1.0.0&lt;br&gt;schema: v1&lt;br&gt;&lt;br&gt;systemPrompt: |&lt;br&gt;  You are a coding assistant working inside VS Code.&lt;br&gt;  Always prefer Continue tool calls.&lt;br&gt;  Follow this exact JSON schema when calling a tool:&lt;br&gt;  {&quot;tool&quot;:&quot;&lt;name&gt;&quot;,&quot;args&quot;:{...}}&lt;br&gt;&lt;br&gt;autoApplyEdits: true&lt;br&gt;autoExecuteToolCalls: true&lt;br&gt;&lt;br&gt;providers:&lt;br&gt;  ollama:&lt;br&gt;    apiBase: http://127.0.0.1:11434&lt;br&gt;&lt;br&gt;models:&lt;br&gt;  - name: StarCoder 2 7B (Ollama)&lt;br&gt;    provider: ollama&lt;br&gt;    model: starcoder2:7b-q4_K_M&lt;br&gt;    roles: [chat, edit, apply, autocomplete]&lt;br&gt;    toolCalling: true&lt;br&gt;    toolSchemaHint: &#39;{&quot;tool&quot;:&quot;&lt;tool_name&gt;&quot;,&quot;args&quot;:{&quot;path&quot;:&quot;string&quot;,&quot;content&quot;:&quot;string&quot;}}&#39;&lt;br&gt;&lt;br&gt;  - name: DeepSeek Coder&lt;br&gt;    provider: ollama&lt;br&gt;    model: deepseek-coder:6.7b-instruct-q4_K_M&lt;br&gt;    roles: [chat, edit, apply, autocomplete]&lt;br&gt;    toolCalling: true&lt;br&gt;    toolSchemaHint: &#39;{&quot;tool&quot;:&quot;&lt;tool_name&gt;&quot;,&quot;args&quot;:{&quot;path&quot;:&quot;string&quot;,&quot;content&quot;:&quot;string&quot;}}&#39;&lt;br&gt;&lt;br&gt;  - name: Qwen Coder&lt;br&gt;    provider: ollama&lt;br&gt;    model: qwen2.5-coder:7b-instruct-q4_K_M&lt;br&gt;    roles: [chat, edit, apply, autocomplete]&lt;br&gt;    toolCalling: true&lt;br&gt;    toolSchemaHint: &#39;{&quot;tool&quot;:&quot;&lt;tool_name&gt;&quot;,&quot;args&quot;:{&quot;path&quot;:&quot;string&quot;,&quot;content&quot;:&quot;string&quot;}}&#39;&lt;br&gt;&lt;br&gt;  - name: StarCoder2 15B Instruct&lt;br&gt;    provider: ollama&lt;br&gt;    model: starcoder2:15b-instruct&lt;br&gt;    roles: [chat, edit, apply, autocomplete]&lt;br&gt;    toolCalling: true&lt;br&gt;    toolSchemaHint: &#39;{&quot;tool&quot;:&quot;&lt;tool_name&gt;&quot;,&quot;args&quot;:{&quot;path&quot;:&quot;string&quot;,&quot;content&quot;:&quot;string&quot;}}&#39;&lt;br&gt;&lt;br&gt;  - name: Nomic Embed&lt;br&gt;    provider: ollama&lt;br&gt;    model: nomic-embed-text:latest&lt;br&gt;    roles: [embed]&lt;br&gt;```" tooltip="Same Continue configuration file as Round 2 with systemPrompt and toolSchemaHint that provide explicit guidance on tool calling format. All models are configured with toolCalling: true and toolSchemaHint to provide clear guidance on the correct tool calling format. The configuration includes 4 coding models and one embedding model, all with enhanced tool calling capabilities." id="config-yaml">
                    <mxCell style="rounded=1;whiteSpace=wrap;html=1;fontSize=10;fillColor=#e1d5e7;strokeColor=#9673a6;verticalAlign=top;spacingTop=5;" parent="1" vertex="1">
                        <mxGeometry x="700" y="510" width="660" height="670" as="geometry"/>
                    </mxCell>
                </object>
                <object label="🥇 Model 1: StarCoder2 15B Instruct" tooltip="StarCoder2 (15b-instruct) - The consistent winner across rounds. Successfully executed the tool call and created the TypeScript Lit component file with exact specifications. Generated valid TypeScript Lit 3 code with proper structure, correct imports from lit and lit/decorators.js, and included optional CSS styling. Demonstrated excellent tool handling capabilities and provided clear status feedback. Shows the strongest tool-calling consistency across all rounds." id="model1-title">
                    <mxCell style="rounded=1;whiteSpace=wrap;html=1;fontSize=16;fontStyle=1;fillColor=#d5e8d4;strokeColor=#82b366;verticalAlign=top;spacingTop=10;" parent="1" vertex="1">
                        <mxGeometry x="40" y="1200" width="320" height="60" as="geometry"/>
                    </mxCell>
                </object>
                <object label="✅ Tool Execution: SUCCESS&lt;br&gt;✅ Code Quality: Excellent&lt;br&gt;✅ Modern Syntax: Perfect Lit 3&lt;br&gt;💬 User Experience: Excellent" tooltip="StarCoder2 15B successfully executed the create_new_file tool and generated a working TypeScript Lit 3 component with exact specifications. The code was syntactically correct, followed modern Lit 3 patterns with proper imports from lit and lit/decorators.js, and included optional CSS styling. The model provided clear feedback and demonstrated the strongest tool-calling consistency across all rounds." id="model1-results">
                    <mxCell style="rounded=1;whiteSpace=wrap;html=1;fontSize=12;fillColor=#d5e8d4;strokeColor=#82b366;verticalAlign=top;spacingTop=5;" parent="1" vertex="1">
                        <mxGeometry x="40" y="1280" width="320" height="100" as="geometry"/>
                    </mxCell>
                </object>
                <object label="🥈 Model 2: DeepSeek Coder 6.7B Instruct" tooltip="DeepSeek Coder (6.7b-instruct-q4_K_M) - Strong and consistent performance. Successfully executed the tool call and created the TypeScript Lit component file. Generated valid Lit 3 code with proper structure, though with a minor import typo (customElement imported from lit instead of lit/decorators.js). Demonstrated reliable tool handling capabilities with minimal but effective feedback. Shows consistent tool execution across rounds." id="model2-title">
                    <mxCell style="rounded=1;whiteSpace=wrap;html=1;fontSize=16;fontStyle=1;fillColor=#fff2cc;strokeColor=#d6b656;verticalAlign=top;spacingTop=10;" parent="1" vertex="1">
                        <mxGeometry x="380" y="1200" width="320" height="60" as="geometry"/>
                    </mxCell>
                </object>
                <object label="✅ Tool Execution: SUCCESS&lt;br&gt;✅ Code Quality: Good&lt;br&gt;⚠️ Modern Syntax: Minor import typo&lt;br&gt;💬 User Experience: Good" tooltip="DeepSeek Coder successfully executed the create_new_file tool and generated a working TypeScript Lit 3 component. The code was syntactically correct and followed Lit 3 patterns, though with a minor import typo where customElement was imported from lit instead of lit/decorators.js. The model provided minimal but clear feedback and demonstrated reliable tool calling capabilities with consistent performance across rounds." id="model2-results">
                    <mxCell style="rounded=1;whiteSpace=wrap;html=1;fontSize=12;fillColor=#fff2cc;strokeColor=#d6b656;verticalAlign=top;spacingTop=5;" parent="1" vertex="1">
                        <mxGeometry x="380" y="1280" width="320" height="100" as="geometry"/>
                    </mxCell>
                </object>
                <object label="🥉 Model 3: Qwen2.5 Coder 7B Instruct" tooltip="Qwen2.5 Coder (7b-instruct-q4_K_M) - Excellent code quality but persistent tool execution issues. Generated perfect TypeScript Lit 3 code with exact specifications, proper imports, decorators, and static properties. However, continued to use incorrect JSON schema for tool calling (name/arguments/filepath/contents vs tool/args/path/content), preventing successful file creation. Shows great potential but needs schema correction to function properly." id="model3-title">
                    <mxCell style="rounded=1;whiteSpace=wrap;html=1;fontSize=16;fontStyle=1;fillColor=#ffe6cc;strokeColor=#d79b00;verticalAlign=top;spacingTop=10;" parent="1" vertex="1">
                        <mxGeometry x="720" y="1200" width="320" height="60" as="geometry"/>
                    </mxCell>
                </object>
                <object label="❌ Tool Execution: FAILED&lt;br&gt;✅ Code Quality: Excellent&lt;br&gt;✅ Modern Syntax: Perfect&lt;br&gt;💬 User Experience: Good" tooltip="Qwen2.5 Coder generated perfect TypeScript Lit 3 code with exact specifications, proper imports from lit and lit/decorators.js, correct decorators, and static properties. However, failed to execute the tool due to incorrect JSON schema usage (name/arguments/filepath/contents vs tool/args/path/content). The model demonstrated excellent understanding of modern Lit patterns and TypeScript best practices, but continued to struggle with Continue&#39;s specific tool calling format." id="model3-results">
                    <mxCell style="rounded=1;whiteSpace=wrap;html=1;fontSize=12;fillColor=#ffe6cc;strokeColor=#d79b00;verticalAlign=top;spacingTop=5;" parent="1" vertex="1">
                        <mxGeometry x="720" y="1280" width="320" height="100" as="geometry"/>
                    </mxCell>
                </object>
                <object label="❌ Model 4: StarCoder2 7B Base" tooltip="StarCoder2 (7b-q4_K_M) - Complete failure with no output. Produced nothing at all, likely failed to parse tool context or schema. This represents the worst performance in Round 3, showing poor prompt understanding and no tool calling capabilities. The base model (non-instruct) version continues to lack the instruction-following capabilities needed for Continue integration." id="model4-title">
                    <mxCell style="rounded=1;whiteSpace=wrap;html=1;fontSize=16;fontStyle=1;fillColor=#f8cecc;strokeColor=#b85450;verticalAlign=top;spacingTop=10;" parent="1" vertex="1">
                        <mxGeometry x="1060" y="1200" width="320" height="60" as="geometry"/>
                    </mxCell>
                </object>
                <object label="❌ Tool Execution: NONE&lt;br&gt;❌ Code Quality: N/A&lt;br&gt;❌ Modern Syntax: N/A&lt;br&gt;💬 User Experience: Poor" tooltip="StarCoder2 7B base model completely failed to understand the task, producing no output at all. This represents the worst performance in Round 3, showing fundamental misunderstanding of the prompt and no tool calling capabilities. The base model version continues to lack the instruction-following capabilities needed for practical Continue usage." id="model4-results">
                    <mxCell style="rounded=1;whiteSpace=wrap;html=1;fontSize=12;fillColor=#f8cecc;strokeColor=#b85450;verticalAlign=top;spacingTop=5;" parent="1" vertex="1">
                        <mxGeometry x="1060" y="1280" width="320" height="100" as="geometry"/>
                    </mxCell>
                </object>
                <object label="📊 Round 3 vs Previous Rounds Analysis" tooltip="Comprehensive analysis comparing Round 3 results to previous rounds, showing continued improvements in tool execution rates, perfect framework accuracy, and overall model performance. This analysis reveals the impact of enhanced prompts and consistent configuration on model behavior." id="analysis-title">
                    <mxCell style="rounded=1;whiteSpace=wrap;html=1;fontSize=16;fontStyle=1;fillColor=#e1d5e7;strokeColor=#9673a6;verticalAlign=top;spacingTop=10;" parent="1" vertex="1">
                        <mxGeometry x="40" y="1400" width="1320" height="40" as="geometry"/>
                    </mxCell>
                </object>
                <object label="🔧 Tool Execution Consistency&lt;br&gt;&lt;br&gt;🥇 StarCoder2 15B: Flawless execution&lt;br&gt;🥈 DeepSeek Coder: Consistent success&lt;br&gt;🥉 Qwen2.5 Coder: Persistent schema issues&lt;br&gt;❌ StarCoder2 7B: Complete failure&lt;br&gt;&lt;br&gt;Key Insight: Tool success rate maintained at 75%" tooltip="Round 3 shows consistent tool execution performance with the same 75% success rate as Round 2. StarCoder2 15B continues to demonstrate flawless tool execution capabilities. DeepSeek Coder maintains consistent success across rounds. Qwen2.5 Coder continues to struggle with JSON schema issues despite excellent code quality. StarCoder2 7B shows complete failure. The consistency in tool execution rates demonstrates the stability of the improved configuration." id="tool-execution">
                    <mxCell style="rounded=1;whiteSpace=wrap;html=1;fontSize=11;fillColor=#d5e8d4;strokeColor=#82b366;verticalAlign=top;spacingTop=5;" parent="1" vertex="1">
                        <mxGeometry x="40" y="1460" width="320" height="160" as="geometry"/>
                    </mxCell>
                </object>
                <object label="💻 Framework Accuracy Perfection&lt;br&gt;&lt;br&gt;🥇 All successful models: Perfect Lit 3&lt;br&gt;🥈 StarCoder2 15B: Clean syntax + CSS&lt;br&gt;🥉 DeepSeek: Minor import typo&lt;br&gt;❌ StarCoder2 7B: No output&lt;br&gt;&lt;br&gt;Key Insight: 100% Lit 3 accuracy achieved" tooltip="Round 3 achieves perfect framework accuracy with 100% of successful models using correct Lit 3 imports and patterns. StarCoder2 15B demonstrates clean syntax with optional CSS styling. DeepSeek Coder shows minor import typo but correct overall structure. StarCoder2 7B produced no output to evaluate. The achievement of 100% Lit 3 accuracy represents a major milestone in framework consistency." id="code-quality">
                    <mxCell style="rounded=1;whiteSpace=wrap;html=1;fontSize=11;fillColor=#fff2cc;strokeColor=#d6b656;verticalAlign=top;spacingTop=5;" parent="1" vertex="1">
                        <mxGeometry x="380" y="1460" width="320" height="160" as="geometry"/>
                    </mxCell>
                </object>
                <object label="⚡ Modern Syntax Excellence&lt;br&gt;&lt;br&gt;🥇 Qwen2.5 Coder: Perfect specifications&lt;br&gt;🥈 StarCoder2 15B: Excellent + CSS&lt;br&gt;🥉 DeepSeek Coder: Good with minor typo&lt;br&gt;❌ StarCoder2 7B: No output&lt;br&gt;&lt;br&gt;Key Insight: Enhanced prompts improve accuracy" tooltip="Round 3 shows excellent modern syntax usage with enhanced prompts leading to better accuracy. Qwen2.5 Coder produces perfect code matching exact specifications. StarCoder2 15B demonstrates excellent syntax with optional CSS styling. DeepSeek Coder shows good syntax with minor import typo. StarCoder2 7B produced no output to evaluate. The enhanced prompts with specific requirements significantly improved code accuracy and completeness." id="modern-syntax">
                    <mxCell style="rounded=1;whiteSpace=wrap;html=1;fontSize=11;fillColor=#ffe6cc;strokeColor=#d79b00;verticalAlign=top;spacingTop=5;" parent="1" vertex="1">
                        <mxGeometry x="720" y="1460" width="320" height="160" as="geometry"/>
                    </mxCell>
                </object>
                <object label="💬 User Experience Stability&lt;br&gt;&lt;br&gt;🥇 StarCoder2 15B: Excellent feedback&lt;br&gt;🥈 DeepSeek Coder: Practical responses&lt;br&gt;🥉 Qwen2.5 Coder: Good communication&lt;br&gt;❌ StarCoder2 7B: No communication&lt;br&gt;&lt;br&gt;Key Insight: Production-ready responses" tooltip="Round 3 shows stable user experience with production-ready responses. StarCoder2 15B provides excellent feedback and contextual understanding. DeepSeek Coder offers practical, minimal responses suitable for production use. Qwen2.5 Coder demonstrates good communication despite tool execution issues. StarCoder2 7B shows no communication at all. The overall user experience has stabilized with practical, usable responses suitable for real-world development." id="user-experience">
                    <mxCell style="rounded=1;whiteSpace=wrap;html=1;fontSize=11;fillColor=#f8cecc;strokeColor=#b85450;verticalAlign=top;spacingTop=5;" parent="1" vertex="1">
                        <mxGeometry x="1060" y="1460" width="320" height="160" as="geometry"/>
                    </mxCell>
                </object>
                <object label="🏆 Round 3 Summary &amp; Recommendations" tooltip="Comprehensive summary of Round 3 results with actionable recommendations for Continue users. Round 3 shows continued improvements with perfect framework accuracy, consistent tool execution rates, and production-ready responses. The comparison reveals clear winners and provides guidance for choosing the right model based on specific needs." id="summary-title">
                    <mxCell style="rounded=1;whiteSpace=wrap;html=1;fontSize=16;fontStyle=1;fillColor=#dae8fc;strokeColor=#6c8ebf;verticalAlign=top;spacingTop=10;" parent="1" vertex="1">
                        <mxGeometry x="40" y="1640" width="1320" height="40" as="geometry"/>
                    </mxCell>
                </object>
                <object label="🥇 Best Overall: StarCoder2 15B Instruct&lt;br&gt;&lt;br&gt;✅ Flawless tool execution&lt;br&gt;✅ Excellent code quality&lt;br&gt;✅ Perfect Lit 3 + CSS&lt;br&gt;✅ Strongest consistency&lt;br&gt;&lt;br&gt;Recommended for: Production use, reliable tool calling, best all-around performance" tooltip="StarCoder2 15B Instruct continues to be the clear winner for practical Continue usage in Round 3. It demonstrates flawless tool execution, excellent code quality with perfect Lit 3 usage and optional CSS styling, and the strongest consistency across all rounds. The model provides excellent feedback and shows the most reliable tool-calling behavior, making it the top choice for production use and daily development tasks." id="best-overall">
                    <mxCell style="rounded=1;whiteSpace=wrap;html=1;fontSize=12;fillColor=#d5e8d4;strokeColor=#82b366;verticalAlign=top;spacingTop=5;" parent="1" vertex="1">
                        <mxGeometry x="40" y="1700" width="320" height="140" as="geometry"/>
                    </mxCell>
                </object>
                <object label="🥈 Best Code Quality: Qwen2.5 Coder 7B&lt;br&gt;&lt;br&gt;✅ Perfect specifications match&lt;br&gt;✅ Excellent Lit 3 patterns&lt;br&gt;✅ Superior syntax quality&lt;br&gt;❌ Tool calling schema issues&lt;br&gt;&lt;br&gt;Recommended for: Code review, syntax examples, when tool calling isn&#39;t critical" tooltip="Qwen2.5 Coder 7B continues to produce the highest quality TypeScript code with perfect match to specifications, excellent Lit 3 patterns, and superior syntax quality. However, it continues to struggle with tool execution due to incorrect JSON schema usage. This model excels at generating code examples, providing syntax guidance, and demonstrating modern best practices. Best used for code review, learning modern patterns, or when manual code copying is acceptable." id="best-code-quality">
                    <mxCell style="rounded=1;whiteSpace=wrap;html=1;fontSize=12;fillColor=#fff2cc;strokeColor=#d6b656;verticalAlign=top;spacingTop=5;" parent="1" vertex="1">
                        <mxGeometry x="380" y="1700" width="320" height="140" as="geometry"/>
                    </mxCell>
                </object>
                <object label="🥉 Consistent Performer: DeepSeek Coder 6.7B&lt;br&gt;&lt;br&gt;✅ Reliable tool execution&lt;br&gt;✅ Good Lit 3 usage&lt;br&gt;✅ Consistent across rounds&lt;br&gt;⚠️ Minor import typo&lt;br&gt;&lt;br&gt;Recommended for: Reliable automation, consistent performance, production use" tooltip="DeepSeek Coder 6.7B shows consistent performance across all rounds with reliable tool execution and good Lit 3 usage. The model demonstrates consistent behavior and reliable tool calling capabilities, though with a minor import typo in Round 3. This represents stable, production-ready performance suitable for automated tasks where consistency is more important than perfect syntax." id="consistent-performer">
                    <mxCell style="rounded=1;whiteSpace=wrap;html=1;fontSize=12;fillColor=#ffe6cc;strokeColor=#d79b00;verticalAlign=top;spacingTop=5;" parent="1" vertex="1">
                        <mxGeometry x="720" y="1700" width="320" height="140" as="geometry"/>
                    </mxCell>
                </object>
                <object label="🔮 Key Insights Across All Rounds&lt;br&gt;&lt;br&gt;• Tool success rate: 25% → 75% → 75%&lt;br&gt;• Lit accuracy: 50% → 100% → 100%&lt;br&gt;• StarCoder2 15B: Most consistent&lt;br&gt;• Enhanced prompts improve accuracy&lt;br&gt;• Production-ready responses achieved&lt;br&gt;&lt;br&gt;Next: Test with complex multi-step tasks" tooltip="Key insights across all three rounds reveal significant improvements and patterns. Tool success rate improved from 25% in Round 1 to 75% in Rounds 2 and 3. Lit framework accuracy improved from 50% to 100% and maintained perfect accuracy. StarCoder2 15B shows the most consistent performance across all rounds. Enhanced prompts with specific requirements significantly improve code accuracy. Production-ready responses have been achieved with practical, usable outputs. Future rounds should test complex multi-step tasks and edge cases to further validate these improvements." id="key-insights">
                    <mxCell style="rounded=1;whiteSpace=wrap;html=1;fontSize=12;fillColor=#e1d5e7;strokeColor=#9673a6;verticalAlign=top;spacingTop=5;" parent="1" vertex="1">
                        <mxGeometry x="1060" y="1700" width="320" height="140" as="geometry"/>
                    </mxCell>
                </object>
                <object label="📈 Performance Metrics Summary" tooltip="Quantitative summary of Round 3 model performance across key metrics. This table provides a clear comparison of how each model performed in different categories, showing the consistency with Round 2 and helping users make informed decisions about which model to use for specific tasks." id="metrics-title">
                    <mxCell style="rounded=1;whiteSpace=wrap;html=1;fontSize=16;fontStyle=1;fillColor=#dae8fc;strokeColor=#6c8ebf;verticalAlign=top;spacingTop=10;" parent="1" vertex="1">
                        <mxGeometry x="40" y="1860" width="1320" height="40" as="geometry"/>
                    </mxCell>
                </object>
                <object label="Model Performance Matrix (Round 3)&lt;br&gt;&lt;br&gt;&lt;table style=&quot;width:100%; border-collapse:collapse;&quot;&gt;&lt;tr&gt;&lt;th style=&quot;text-align:left; padding:4px;&quot;&gt;Model&lt;/th&gt;&lt;th style=&quot;text-align:center; padding:4px;&quot;&gt;Tool Exec&lt;/th&gt;&lt;th style=&quot;text-align:center; padding:4px;&quot;&gt;Code Quality&lt;/th&gt;&lt;th style=&quot;text-align:center; padding:4px;&quot;&gt;Modern Syntax&lt;/th&gt;&lt;th style=&quot;text-align:center; padding:4px;&quot;&gt;UX&lt;/th&gt;&lt;th style=&quot;text-align:center; padding:4px;&quot;&gt;Overall&lt;/th&gt;&lt;/tr&gt;&lt;tr&gt;&lt;td style=&quot;padding:4px;&quot;&gt;&lt;b&gt;StarCoder2 15B&lt;/b&gt;&lt;/td&gt;&lt;td style=&quot;text-align:center; padding:4px;&quot;&gt;✅ 10/10&lt;/td&gt;&lt;td style=&quot;text-align:center; padding:4px;&quot;&gt;✅ 10/10&lt;/td&gt;&lt;td style=&quot;text-align:center; padding:4px;&quot;&gt;✅ 10/10&lt;/td&gt;&lt;td style=&quot;text-align:center; padding:4px;&quot;&gt;✅ 10/10&lt;/td&gt;&lt;td style=&quot;text-align:center; padding:4px;&quot;&gt;&lt;b&gt;🥇 10/10&lt;/b&gt;&lt;/td&gt;&lt;/tr&gt;&lt;tr&gt;&lt;td style=&quot;padding:4px;&quot;&gt;&lt;b&gt;DeepSeek 6.7B&lt;/b&gt;&lt;/td&gt;&lt;td style=&quot;text-align:center; padding:4px;&quot;&gt;✅ 10/10&lt;/td&gt;&lt;td style=&quot;text-align:center; padding:4px;&quot;&gt;✅ 8/10&lt;/td&gt;&lt;td style=&quot;text-align:center; padding:4px;&quot;&gt;✅ 7/10&lt;/td&gt;&lt;td style=&quot;text-align:center; padding:4px;&quot;&gt;✅ 8/10&lt;/td&gt;&lt;td style=&quot;text-align:center; padding:4px;&quot;&gt;&lt;b&gt;🥈 8.25/10&lt;/b&gt;&lt;/td&gt;&lt;/tr&gt;&lt;tr&gt;&lt;td style=&quot;padding:4px;&quot;&gt;&lt;b&gt;Qwen2.5 7B&lt;/b&gt;&lt;/td&gt;&lt;td style=&quot;text-align:center; padding:4px;&quot;&gt;❌ 2/10&lt;/td&gt;&lt;td style=&quot;text-align:center; padding:4px;&quot;&gt;✅ 10/10&lt;/td&gt;&lt;td style=&quot;text-align:center; padding:4px;&quot;&gt;✅ 10/10&lt;/td&gt;&lt;td style=&quot;text-align:center; padding:4px;&quot;&gt;✅ 8/10&lt;/td&gt;&lt;td style=&quot;text-align:center; padding:4px;&quot;&gt;&lt;b&gt;🥉 7.5/10&lt;/b&gt;&lt;/td&gt;&lt;/tr&gt;&lt;tr&gt;&lt;td style=&quot;padding:4px;&quot;&gt;&lt;b&gt;StarCoder2 7B&lt;/b&gt;&lt;/td&gt;&lt;td style=&quot;text-align:center; padding:4px;&quot;&gt;❌ 0/10&lt;/td&gt;&lt;td style=&quot;text-align:center; padding:4px;&quot;&gt;❌ 0/10&lt;/td&gt;&lt;td style=&quot;text-align:center; padding:4px;&quot;&gt;❌ 0/10&lt;/td&gt;&lt;td style=&quot;text-align:center; padding:4px;&quot;&gt;❌ 1/10&lt;/td&gt;&lt;td style=&quot;text-align:center; padding:4px;&quot;&gt;&lt;b&gt;❌ 0.25/10&lt;/b&gt;&lt;/td&gt;&lt;/tr&gt;&lt;/table&gt;" tooltip="Performance matrix showing quantitative scores for each model in Round 3. StarCoder2 15B achieves perfect 10/10 overall score, excelling in all categories including tool execution, code quality, modern syntax, and user experience. DeepSeek Coder scores 8.25/10 with consistent performance and minor syntax issues. Qwen2.5 Coder scores 7.5/10 with perfect code quality but poor tool execution. StarCoder2 7B scores 0.25/10 with complete failure across all metrics. This quantitative analysis shows the continued excellence of StarCoder2 15B and the stability of the improved configuration." id="performance-matrix">
                    <mxCell style="rounded=1;whiteSpace=wrap;html=1;fontSize=11;fillColor=#f5f5f5;strokeColor=#666666;verticalAlign=top;spacingTop=5;" parent="1" vertex="1">
                        <mxGeometry x="40" y="1920" width="1320" height="160" as="geometry"/>
                    </mxCell>
                </object>
            </root>
        </mxGraphModel>
    </diagram>
</mxfile>